<svg id="SvgjsSvg1153" width="288" height="288" xmlns="http://www.w3.org/2000/svg" version="1.1" xmlns:xlink="http://www.w3.org/1999/xlink" xmlns:svgjs="http://svgjs.com/svgjs"><defs id="SvgjsDefs1154"></defs><g id="SvgjsG1155"><svg xmlns="http://www.w3.org/2000/svg" xmlns:xlink="http://www.w3.org/1999/xlink" viewBox="0 0 64 64" width="288" height="288"><defs><linearGradient id="a"><stop offset="0" stop-color="#000000" class="stopColor000000 svgShape"></stop><stop offset="1" stop-opacity="0" stop-color="#000000" class="stopColor000000 svgShape"></stop></linearGradient><linearGradient id="b" x1="31" x2="31" y1="1005.4" y2="1003.4" gradientTransform="matrix(.92593 0 0 1 2.37 0)" gradientUnits="userSpaceOnUse" xlink:href="#a"></linearGradient><radialGradient id="c" cx="32" cy="1021.9" r="25" gradientTransform="matrix(-1 0 0 -.08 64 1126.1)" gradientUnits="userSpaceOnUse" xlink:href="#a"></radialGradient><filter id="d" width="1.067" height="1.078" x="-.033" y="-.039" color-interpolation-filters="sRGB"><feGaussianBlur stdDeviation=".292"></feGaussianBlur></filter></defs><g transform="translate(0 -988.36)"><g stroke-width="1.424"><rect width="20" height="7" x="11" y="996.36" fill="#fc9867" rx="2" ry="2" class="colord0a15c svgShape"></rect><rect width="50" height="10" x="7" y="998.36" fill="#fc9867" rx="1.786" ry="2" class="colord0a15c svgShape"></rect><rect width="44" height="7" x="10" y="1001.4" fill="#ffffff" rx=".88" ry="1" class="colorfff svgShape"></rect></g><rect width="56" height="39" x="4" y="1005.4" fill="#fc9867" rx="2" ry="2" class="colord0a15c svgShape"></rect><rect width="50" height="2" x="7" y="1003.4" fill="url(#b)" opacity=".1" ry="0"></rect><rect width="56" height="38" x="4" y="1005.4" fill="#fc9867" rx="2" ry="2" class="colorf4be70 svgShape"></rect><rect width="50" height="5" x="7" y="1044.4" fill="url(#c)" opacity=".1" ry="0"></rect><path d="m32.798 1019.7c-1.5 0-1.5 1.5-1.5 1.5v15c0 1.5 1.5 1.5 1.5 1.5h18s1.5 0 1.5-1.5v-15c0-1.5-1.5-1.5-1.5-1.5zm5.25 6.8438 4.9688 5.625 3.1875-3.0938 3.0938 3.0938v2.5312h-15v-3.75z" color="#000" enable-background="new" filter="url(#d)" opacity=".15" style="text-decoration-line:none;text-indent:0;text-transform:none"></path><path fill="#ffffff" d="m32.5 1019.4c-1.5 0-1.5 1.5-1.5 1.5v15c0 1.5 1.5 1.5 1.5 1.5h18s1.5 0 1.5-1.5v-15c0-1.5-1.5-1.5-1.5-1.5zm5.25 6.8438 4.9688 5.625 3.1875-3.0938 3.0938 3.0938v2.5312h-15v-3.75z" color="#000" enable-background="new" style="text-decoration-line:none;text-indent:0;text-transform:none" class="colorfff svgShape"></path></g></svg></g></svg>