<svg id="SvgjsSvg1025" width="288" height="288" xmlns="http://www.w3.org/2000/svg" version="1.1" xmlns:xlink="http://www.w3.org/1999/xlink" xmlns:svgjs="http://svgjs.com/svgjs"><defs id="SvgjsDefs1026"></defs><g id="SvgjsG1027"><svg xmlns="http://www.w3.org/2000/svg" xmlns:xlink="http://www.w3.org/1999/xlink" viewBox="0 0 64 64" width="288" height="288"><defs><linearGradient id="a"><stop offset="0" stop-color="#000000" class="stopColor000000 svgShape"></stop><stop offset="1" stop-opacity="0" stop-color="#000000" class="stopColor000000 svgShape"></stop></linearGradient><linearGradient id="b" x1="31" x2="31" y1="1005.4" y2="1003.4" gradientTransform="matrix(.92593 0 0 1 2.37 0)" gradientUnits="userSpaceOnUse" xlink:href="#a"></linearGradient><radialGradient id="c" cx="32" cy="1021.9" r="25" gradientTransform="matrix(-1 0 0 -.08 64 1126.1)" gradientUnits="userSpaceOnUse" xlink:href="#a"></radialGradient><filter id="d" width="1.062" height="1.087" x="-.031" y="-.043" color-interpolation-filters="sRGB"><feGaussianBlur stdDeviation=".307"></feGaussianBlur></filter></defs><g transform="translate(0 -988.36)"><g stroke-width="1.424"><rect width="20" height="7" x="11" y="996.36" fill="#fc9867" rx="2" ry="2" class="colord0a15c svgShape"></rect><rect width="50" height="10" x="7" y="998.36" fill="#fc9867" rx="1.786" ry="2" class="colord0a15c svgShape"></rect><rect width="44" height="7" x="10" y="1001.4" fill="#ffffff" rx=".88" ry="1" class="colorfff svgShape"></rect></g><rect width="56" height="39" x="4" y="1005.4" fill="#fc9867" rx="2" ry="2" class="colord0a15c svgShape"></rect><rect width="50" height="2" x="7" y="1003.4" fill="url(#b)" opacity=".1" ry="0"></rect><rect width="56" height="38" x="4" y="1005.4" fill="#fc9867" rx="2" ry="2" class="colorf4be70 svgShape"></rect><rect width="50" height="5" x="7" y="1044.4" fill="url(#c)" opacity=".1" ry="0"></rect><path d="m40.262 1022.6c-3.1066 0-5.7521 1.9595-6.8906 4.7329-2.8917 0.4429-5.1094 2.9826-5.1094 6.0853 0 3.414 2.6863 6.1818 6 6.1818h12.75c2.8995 0 5.25-2.4218 5.25-5.4091 0-2.7766-2.0262-5.0517-4.6406-5.3609-0.68186-3.5443-3.7191-6.23-7.3594-6.23z" enable-background="new" filter="url(#d)" opacity=".15"></path><path fill="#ffffff" d="m40 1022.4c-3.1066 0-5.7521 1.9595-6.8906 4.7329-2.8917 0.4429-5.1094 2.9826-5.1094 6.0853 0 3.414 2.6863 6.1818 6 6.1818h12.75c2.8995 0 5.25-2.4218 5.25-5.4091 0-2.7766-2.0262-5.0517-4.6406-5.3609-0.68186-3.5443-3.7191-6.23-7.3594-6.23z" enable-background="new" class="colorfff svgShape"></path></g></svg></g></svg>