<svg id="SvgjsSvg1109" width="288" height="288" xmlns="http://www.w3.org/2000/svg" version="1.1" xmlns:xlink="http://www.w3.org/1999/xlink" xmlns:svgjs="http://svgjs.com/svgjs"><defs id="SvgjsDefs1110"></defs><g id="SvgjsG1111"><svg xmlns="http://www.w3.org/2000/svg" xmlns:xlink="http://www.w3.org/1999/xlink" viewBox="0 0 64 64" width="288" height="288"><defs><linearGradient id="a"><stop offset="0" stop-color="#000000" class="stopColor000000 svgShape"></stop><stop offset="1" stop-opacity="0" stop-color="#000000" class="stopColor000000 svgShape"></stop></linearGradient><linearGradient id="b" x1="31" x2="31" y1="1005.4" y2="1003.4" gradientTransform="matrix(.92593 0 0 1 2.37 -988.36)" gradientUnits="userSpaceOnUse" xlink:href="#a"></linearGradient><radialGradient id="c" cx="32" cy="1021.9" r="25" gradientTransform="matrix(-1 0 0 -.08 64 137.74)" gradientUnits="userSpaceOnUse" xlink:href="#a"></radialGradient><filter id="d" width="1.072" height="1.072" x="-.036" y="-.036" color-interpolation-filters="sRGB"><feGaussianBlur stdDeviation=".315"></feGaussianBlur></filter></defs><g stroke-width="1.424" transform="translate(0 -988.36)"><rect width="20" height="7" x="11" y="996.36" fill="#fc9867" rx="2" ry="2" class="colord0a15c svgShape"></rect><rect width="50" height="10" x="7" y="998.36" fill="#fc9867" rx="1.786" ry="2" class="colord0a15c svgShape"></rect><rect width="44" height="7" x="10" y="1001.4" fill="#ffffff" rx=".88" ry="1" class="colorfff svgShape"></rect></g><rect width="56" height="39" x="4" y="17.04" fill="#fc9867" rx="2" ry="2" class="colord0a15c svgShape"></rect><rect width="50" height="2" x="7" y="15.04" fill="url(#b)" opacity=".1" ry="0"></rect><rect width="56" height="38" x="4" y="17.04" fill="#fc9867" rx="2" ry="2" class="colorf4be70 svgShape"></rect><rect width="50" height="5" x="7" y="56.04" fill="url(#c)" opacity=".1" ry="0"></rect><path d="m38.244 30.244v12.281c-0.4747-0.1703-0.9667-0.2813-1.5-0.2813-2.4852 0-4.5 2.0148-4.5 4.5 0 2.4854 2.0148 4.5 4.5 4.5s4.5-2.0146 4.5-4.5v-10.5h9v6.2813c-0.4747-0.1703-0.9667-0.2813-1.5-0.2813-2.4852 0-4.5 2.0148-4.5 4.5 0 2.4854 2.0148 4.5 4.5 4.5s4.5-2.0146 4.5-4.5v-16.5h-1.5z" filter="url(#d)" opacity=".15"></path><path fill="#ffffff" d="m38 30v12.281c-0.4747-0.1703-0.9667-0.2813-1.5-0.2813-2.4852 0-4.5 2.0148-4.5 4.5 0 2.4854 2.0148 4.5 4.5 4.5s4.5-2.0146 4.5-4.5v-10.5h9v6.2813c-0.4747-0.1703-0.9667-0.2813-1.5-0.2813-2.4852 0-4.5 2.0148-4.5 4.5 0 2.4854 2.0148 4.5 4.5 4.5s4.5-2.0146 4.5-4.5v-16.5h-1.5z" class="colorfff svgShape"></path></svg></g></svg>