<svg id="SvgjsSvg1358" width="288" height="288" xmlns="http://www.w3.org/2000/svg" version="1.1" xmlns:xlink="http://www.w3.org/1999/xlink" xmlns:svgjs="http://svgjs.com/svgjs"><defs id="SvgjsDefs1359"></defs><g id="SvgjsG1360"><svg xmlns="http://www.w3.org/2000/svg" viewBox="0 0 64 64" width="288" height="288"><defs><radialGradient id="a" cx="32" cy="1021.9" r="25" gradientTransform="matrix(-1 0 0 -.08 64 137.7)" gradientUnits="userSpaceOnUse"><stop offset="0" stop-color="#000000" class="stopColor000000 svgShape"></stop><stop offset="1" stop-opacity="0" stop-color="#000000" class="stopColor000000 svgShape"></stop></radialGradient></defs><g fill-rule="evenodd"><rect width="56" height="48" x="4" y="8" fill="#666666" paint-order="fill markers stroke" rx="3" ry="3" class="color666 svgShape"></rect><path fill="#ffffff" d="m15 50h34c0.554 0 0.75224 0.50449 1 1l1 2c0.24776 0.49551 0 1-1 1h-36c-1 0-1.2478-0.50449-1-1l1-2c0.24776-0.49551 0.446-1 1-1z" opacity=".2" paint-order="fill markers stroke" class="colorfff svgShape"></path><path fill="#4d4d4d" d="m7 8c-1.662 0-3 1.338-3 3v3h56v-3c0-1.662-1.338-3-3-3z" paint-order="fill markers stroke" class="color4d4d4d svgShape"></path><path fill="#ffffff" d="m7 8c-1.662 0-3 1.338-3 3v0.5c0-1.385 1.338-2.5 3-2.5h50c1.662 0 3 1.115 3 2.5v-0.5c0-1.662-1.338-3-3-3z" opacity=".1" paint-order="fill markers stroke" class="colorfff svgShape"></path><path d="m4 52.062v0.9375c0 1.662 1.338 3 3 3h50c1.662 0 3-1.338 3-3v-0.9375c0 1.6274-1.338 2.9375-3 2.9375h-50c-1.662 0-3-1.3101-3-2.9375z" opacity=".2" paint-order="fill markers stroke"></path><g fill="#b3b3b3" transform="translate(1.995)" class="colorb3b3b3 svgShape"><rect width="6" height="6" x="15.005" y="46" paint-order="fill markers stroke" rx="1" ry="1"></rect><rect width="6" height="6" x="23.005" y="46" paint-order="fill markers stroke" rx="1" ry="1"></rect><rect width="6" height="6" x="31.005" y="46" paint-order="fill markers stroke" rx="1" ry="1"></rect><rect width="6" height="6" x="39.005" y="46" paint-order="fill markers stroke" rx="1" ry="1"></rect></g></g><rect width="50" height="5" x="7" y="56" fill="url(#a)" opacity=".15" ry="0"></rect></svg></g></svg>