<svg id="SvgjsSvg1129" width="288" height="288" xmlns="http://www.w3.org/2000/svg" version="1.1" xmlns:xlink="http://www.w3.org/1999/xlink" xmlns:svgjs="http://svgjs.com/svgjs"><defs id="SvgjsDefs1130"></defs><g id="SvgjsG1131"><svg xmlns="http://www.w3.org/2000/svg" xmlns:xlink="http://www.w3.org/1999/xlink" viewBox="0 0 64 64" width="288" height="288"><defs><linearGradient id="c" x1="31" x2="31" y1="1005.4" y2="1003.4" gradientTransform="matrix(.92593 0 0 1 2.37 9.964)" gradientUnits="userSpaceOnUse" xlink:href="#a"></linearGradient><linearGradient id="a"><stop offset="0" stop-color="#000000" class="stopColor000000 svgShape"></stop><stop offset="1" stop-opacity="0" stop-color="#000000" class="stopColor000000 svgShape"></stop></linearGradient><radialGradient id="d" cx="32" cy="1021.9" r="25" gradientTransform="matrix(-1 0 0 -.08 64 1126.1)" gradientUnits="userSpaceOnUse" xlink:href="#a"></radialGradient><filter id="b" width="1.094" height="1.058" x="-.047" y="-.029" color-interpolation-filters="sRGB"><feGaussianBlur stdDeviation=".312"></feGaussianBlur></filter></defs><g transform="translate(0 -988.36)"><g fill="#fc9867" stroke-width="1.424" class="colord0a15c svgShape"><rect width="20" height="7" x="11" y="996.36" rx="2" ry="2"></rect><rect width="50" height="28.998" x="7" y="998.36" rx="1.786" ry="1.998"></rect><rect width="56" height="29.04" x="4" y="1015.4" rx="2" ry="2"></rect></g><g filter="url(#b)" opacity=".15" transform="matrix(1.25 0 0 1.1538 2.063 -163.15)"><rect width="8" height="19.067" x="20" y="1016.3" ry="0"></rect><path d="m22.4 1017.2h-6.4l8-7.8 8 7.8h-5.6l-2.4 2.2z"></path></g><g fill="#ffffff" transform="matrix(1.25 0 0 1.1538 2 -163.29)" class="colorfff svgShape"><rect width="8" height="19.067" x="20" y="1016.3" ry="0"></rect><path d="m22.4 1017.2h-6.4l8-7.8 8 7.8h-5.6l-2.4 2.2z"></path></g><rect width="50" height="2" x="7" y="1013.4" fill="url(#c)" opacity=".1" ry="0"></rect><rect width="56" height="28" x="4" y="1015.4" fill="#fc9867" rx="2" ry="2" class="colorf4be70 svgShape"></rect><rect width="50" height="5" x="7" y="1044.4" fill="url(#d)" opacity=".1" ry="0"></rect></g></svg></g></svg>