<svg id="SvgjsSvg1378" width="288" height="288" xmlns="http://www.w3.org/2000/svg" version="1.1" xmlns:xlink="http://www.w3.org/1999/xlink" xmlns:svgjs="http://svgjs.com/svgjs"><defs id="SvgjsDefs1379"></defs><g id="SvgjsG1380"><svg xmlns="http://www.w3.org/2000/svg" xmlns:xlink="http://www.w3.org/1999/xlink" viewBox="0 0 64 64" width="288" height="288"><g stroke-width=".5" transform="translate(0 1)"><g id="a" stroke-width=".5" transform="matrix(4 0 0 4 -222 -1044)"><rect width="4.5" height="14" x="-266.5" y="-70.5" fill="#787c82" rx=".5" ry=".5" transform="matrix(0 -1 -1 0 0 0)" class="color787c82 svgShape"></rect><path fill="none" stroke="#545454" stroke-linecap="round" d="M61.756 263.36l-1.0043 1.5057M60.256 263.36l-1.0043 1.5057M58.756 263.36l-1.0043 1.5057" class="colorStroke545454 svgStroke"></path><rect width="1" height="1" x="65.5" y="263.5" fill="#76ff03" ry=".5" class="color76ff03 svgShape"></rect><rect width="1" height="1" x="67" y="263.5" fill="#ffff00" ry=".5" class="colorff0 svgShape"></rect><rect width="1" height="1" x="68.5" y="263.5" fill="#ffcd40" ry=".5" class="colorffcd40 svgShape"></rect><path fill="none" stroke="#545454" stroke-linecap="round" d="m63.256 263.36-1.0043 1.5057" class="colorStroke545454 svgStroke"></path><path fill="#ffffff" d="m6 4c-1.108 0-2 0.892-2 2v0.88867c0-1.0464 0.892-1.8887 2-1.8887h52c1.108 0 2 0.84223 2 1.8887v-0.88867c0-1.108-0.892-2-2-2z" opacity=".15" transform="matrix(.25 0 0 .25 55.5 261)" class="colorfff svgShape"></path><path d="m57 266.5c-0.277 0-0.5-0.223-0.5-0.5v-0.22217c0 0.26161 0.223 0.47217 0.5 0.47217h13c0.277 0 0.5-0.21056 0.5-0.47217v0.22217c0 0.277-0.223 0.5-0.5 0.5z" opacity=".15"></path></g><use width="100%" height="100%" enable-background="new" transform="translate(0 18)" xlink:href="#a"></use><use width="100%" height="100%" enable-background="new" transform="translate(0 36)" xlink:href="#a"></use></g></svg></g></svg>