<svg id="SvgjsSvg1339" width="288" height="288" xmlns="http://www.w3.org/2000/svg" version="1.1" xmlns:xlink="http://www.w3.org/1999/xlink" xmlns:svgjs="http://svgjs.com/svgjs"><defs id="SvgjsDefs1340"></defs><g id="SvgjsG1341"><svg xmlns="http://www.w3.org/2000/svg" viewBox="0 0 64 64" width="288" height="288"><defs><filter id="c" width="1.144" height="1.72" x="-.072" y="-.36" color-interpolation-filters="sRGB"><feGaussianBlur stdDeviation="4.8"></feGaussianBlur></filter><filter id="b" width="1.055" height="1.105" x="-.027" y="-.052" color-interpolation-filters="sRGB"><feGaussianBlur stdDeviation=".525"></feGaussianBlur></filter><filter id="a" width="1.072" height="1.072" x="-.036" y="-.036" color-interpolation-filters="sRGB"><feGaussianBlur stdDeviation=".84"></feGaussianBlur></filter></defs><path d="m8.9805 3.9961c-1.662-1e-7 -3 1.4338-3 3.2148v9.9766c-1.1546 0.41688-1.9805 1.5106-1.9805 2.8125v37c0 1.662 1.338 3 3 3h50c1.662 0 3-1.338 3-3v-37c0-1.662-1.338-3-3-3h-26.822l4.8223-5.4297h20c1.662 0 2.9805 1.1311 2.9805 2.9121v-0.26758c0-1.781-1.338-3.2148-3-3.2148h-19.98l-6.0195-7.0039h-20z" enable-background="new" filter="url(#a)" opacity=".25"></path><path fill="#fc9867" d="m5.9805 41.502v-34.292c0-1.781 1.338-3.2148 3-3.2148h20l6.0195 7.0039h19.98c1.662 0 3 1.4338 3 3.2148v27.288c0 1.781-1.338 3.2148-3 3.2148h-46c-1.662 0-3-1.4338-3-3.2148z" enable-background="new" class="colorf4be70 svgShape"></path><path d="m8.9805 3.9961c-1.662-1e-7 -3 1.4338-3 3.2148v13.434c-1e-7 -1.781 1.338-3.2148 3-3.2148h20l6-6.4297h0.019531l-6.0195-7.0039z" enable-background="new" opacity=".25"></path><path fill="#ffffff" d="m8.9805 4c-1.662 0-3 1.4338-3 3.2148v0.2679c0-1.781 1.3586-2.4219 3.0195-2.4827h20l5.5085 6.5049 0.47193-0.50486-6-7z" enable-background="new" opacity=".2" class="colorfff svgShape"></path><path fill="#fc9867" d="m57.98 54.936v-40.721c0-1.781-1.338-3.2148-3-3.2148h-20l-6 6.4297h-20c-1.662 0-3 1.4338-3 3.2148v34.292c0 1.781 1.338 3.2148 3 3.2148h46c1.662 0 3-1.4338 3-3.2148z" enable-background="new" class="colorf4be70 svgShape"></path><path d="m57.98 54.936v-40.721c0-1.781-1.338-3.2148-3-3.2148h-20l-6 6.4297h-20c-1.662 0-3 1.4338-3 3.2148v34.292c0 1.781 1.338 3.2148 3 3.2148h46c1.662 0 3-1.4338 3-3.2148z" enable-background="new" opacity=".15"></path><rect width="46" height="24" x="9" y="13.26" fill-rule="evenodd" enable-background="new" filter="url(#b)" opacity=".15" paint-order="fill markers stroke" rx="1" ry="1"></rect><rect width="46" height="24" x="9" y="14" fill="#ffffff" fill-rule="evenodd" enable-background="new" paint-order="fill markers stroke" rx="1" ry="1" class="colorfff svgShape"></rect><path fill="#ffffff" d="m34.98 11-6 6.4297-20 0.15314c-1.662 0.01272-3 1.2807-3 3.0617v0.2679c0-1.781 1.338-2.5685 3-2.5682l20 0.003126 6.0195-6.7769h20c1.662 0 2.9805 1.1314 2.9805 2.9124v-0.2679c0-1.781-1.338-3.2148-3-3.2148z" enable-background="new" opacity=".2" class="colorfff svgShape"></path><rect width="43" height="56" x="-60" y="-60" fill="#fc9867" enable-background="new" rx="3" ry="3" transform="matrix(0 -1 -1 0 0 0)" class="colorf4be70 svgShape"></rect><rect width="160" height="32" x="-38.074" y="-18.628" enable-background="new" filter="url(#c)" opacity=".2" rx="0" ry="8" transform="matrix(.125 0 0 .13395 26.759 28.038)"></rect><rect width="20" height="4" x="22" y="25" fill="#ffffff" enable-background="new" rx="1" ry="1" class="colorfff svgShape"></rect><path fill="#ffffff" d="m7 17c-1.662 0-3 1.338-3 3v0.92969c0-1.6233 1.338-2.9297 3-2.9297h50c1.662 0 3 1.3063 3 2.9297v-0.92969c0-1.662-1.338-3-3-3h-50z" enable-background="new" opacity=".35" class="colorfff svgShape"></path><path d="m7 60c-1.662 0-3-1.338-3-3v-0.92969c0 1.6233 1.338 2.9297 3 2.9297h50c1.662 0 3-1.3063 3-2.9297v0.92969c0 1.662-1.338 3-3 3z" enable-background="new" opacity=".15"></path></svg></g></svg>