<svg id="SvgjsSvg1142" width="288" height="288" xmlns="http://www.w3.org/2000/svg" version="1.1" xmlns:xlink="http://www.w3.org/1999/xlink" xmlns:svgjs="http://svgjs.com/svgjs"><defs id="SvgjsDefs1143"></defs><g id="SvgjsG1144"><svg xmlns="http://www.w3.org/2000/svg" xmlns:xlink="http://www.w3.org/1999/xlink" viewBox="0 0 64 64" width="288" height="288"><defs><linearGradient id="c" x1="31" x2="31" y1="1005.4" y2="1003.4" gradientTransform="matrix(.92593 0 0 1 2.37 -978.4)" gradientUnits="userSpaceOnUse" xlink:href="#a"></linearGradient><linearGradient id="a"><stop offset="0" stop-color="#000000" class="stopColor000000 svgShape"></stop><stop offset="1" stop-opacity="0" stop-color="#000000" class="stopColor000000 svgShape"></stop></linearGradient><radialGradient id="d" cx="32" cy="1021.9" r="25" gradientTransform="matrix(-1 0 0 -.08 64 137.74)" gradientUnits="userSpaceOnUse" xlink:href="#a"></radialGradient><filter id="b" width="1.094" height="1.058" x="-.047" y="-.029" color-interpolation-filters="sRGB"><feGaussianBlur stdDeviation=".312"></feGaussianBlur></filter></defs><path fill="#adbf04" d="m13 8c-1.108 0-2 0.892-2 2h-2.2148c-0.98928 0-1.7852 0.89127-1.7852 1.998v25.002c0 1.1068 0.79588 1.998 1.7852 1.998h46.43c0.98928 0 1.7852-0.89127 1.7852-1.998v-25.002c0-1.1068-0.79588-1.998-1.7852-1.998h-24.215c0-1.108-0.892-2-2-2h-16z" class="colorf0544c svgShape"></path><path d="m13 8c-1.108 0-2 0.892-2 2h-2.2148c-0.98928 0-1.7852 0.89127-1.7852 1.998v25.002c0 1.1068 0.79588 1.998 1.7852 1.998h46.43c0.98928 0 1.7852-0.89127 1.7852-1.998v-25.002c0-1.1068-0.79588-1.998-1.7852-1.998h-24.215c0-1.108-0.892-2-2-2h-16z" opacity=".15"></path><g filter="url(#b)" opacity=".15" transform="matrix(1.25 0 0 1.1538 2.063 -1151.5)"><rect width="8" height="19.067" x="20" y="1016.3" ry="0"></rect><path d="m22.4 1017.2h-6.4l8-7.8 8 7.8h-5.6l-2.4 2.2z"></path></g><g fill="#ffffff" transform="matrix(1.25 0 0 1.1538 2 -1151.6)" class="colorfff svgShape"><rect width="8" height="19.067" x="20" y="1016.3" ry="0"></rect><path d="m22.4 1017.2h-6.4l8-7.8 8 7.8h-5.6l-2.4 2.2z"></path></g><rect width="50" height="2" x="7" y="25.04" fill="url(#c)" opacity=".1" ry="0"></rect><rect width="50" height="5" x="7" y="56.04" fill="url(#d)" opacity=".1" ry="0"></rect><rect width="56" height="29.04" x="4" y="27.04" fill="#adbf04" rx="2" ry="2" class="colorf0544c svgShape"></rect><path d="m4 53.039v1.041c0 1.1081 0.892 2 2 2h52c1.108 0 2-0.89194 2-2v-1.041c0 1.1081-0.892 2-2 2h-52c-1.108 0-2-0.89194-2-2z" opacity=".15"></path></svg></g></svg>