<svg id="SvgjsSvg1204" width="288" height="288" xmlns="http://www.w3.org/2000/svg" version="1.1" xmlns:xlink="http://www.w3.org/1999/xlink" xmlns:svgjs="http://svgjs.com/svgjs"><defs id="SvgjsDefs1205"></defs><g id="SvgjsG1206"><svg xmlns="http://www.w3.org/2000/svg" xmlns:xlink="http://www.w3.org/1999/xlink" viewBox="0 0 64 64" width="288" height="288"><defs><linearGradient id="a"><stop offset="0" stop-color="#000000" class="stopColor000000 svgShape"></stop><stop offset="1" stop-opacity="0" stop-color="#000000" class="stopColor000000 svgShape"></stop></linearGradient><linearGradient id="b" x1="31" x2="31" y1="1005.4" y2="1003.4" gradientTransform="matrix(.92593 0 0 1 2.37 -988.36)" gradientUnits="userSpaceOnUse" xlink:href="#a"></linearGradient><radialGradient id="c" cx="32" cy="1021.9" r="25" gradientTransform="matrix(-1 0 0 -.08 64 137.74)" gradientUnits="userSpaceOnUse" xlink:href="#a"></radialGradient><filter id="d" width="1.067" height="1.077" x="-.034" y="-.039" color-interpolation-filters="sRGB"><feGaussianBlur stdDeviation=".338"></feGaussianBlur></filter></defs><g stroke-width="1.424" transform="translate(0 -988.36)"><path fill="#adbf04" d="m13 8.002c-1.108 0-2 0.892-2 2h-2.2148c-0.98928 0-1.7852 0.892-1.7852 2v6c0 1.108 0.79588 2 1.7852 2h46.43c0.98928 0 1.7852-0.892 1.7852-2v-6c0-1.108-0.79588-2-1.7852-2h-24.215c0-1.108-0.892-2-2-2z" transform="translate(0 988.36)" class="colorf0544c svgShape"></path><path d="m13 8.002c-1.108 0-2 0.892-2 2h-2.2148c-0.98928 0-1.7852 0.892-1.7852 2v6c0 1.108 0.79588 2 1.7852 2h46.43c0.98928 0 1.7852-0.892 1.7852-2v-6c0-1.108-0.79588-2-1.7852-2h-24.215c0-1.108-0.892-2-2-2z" opacity=".15" transform="translate(0 988.36)"></path><rect width="44" height="7" x="10" y="1001.4" fill="#ffffff" rx=".88" ry="1" class="colorfff svgShape"></rect></g><rect width="50" height="2" x="7" y="15.04" fill="url(#b)" opacity=".1" ry="0"></rect><rect width="50" height="5" x="7" y="56.04" fill="url(#c)" opacity=".1" ry="0"></rect><rect width="56" height="39" x="4" y="17.04" fill="#adbf04" rx="2" ry="2" class="colorf0544c svgShape"></rect><path d="m4 53.039v1c0 1.1081 0.892 2 2 2h52c1.108 0 2-0.89194 2-2v-1c0 1.108-0.892 2-2 2h-52c-1.108 0-2-0.892-2-2z" opacity=".15"></path><path d="m41.69 30.24a10.5 10.5 0 0 0-10.5 10.5h-3l4.5 6 4.5-6h-3a7.5 7.5 0 0 1 7.5-7.5 7.5 7.5 0 0 1 7.5 7.5 7.5 7.5 0 0 1-7.5 7.5v3a10.5 10.5 0 0 0 10.5-10.5 10.5 10.5 0 0 0-10.5-10.5zm-1.5 5.25v6.4014l4.834 3.2226 0.83202-1.248-4.166-2.7774v-5.5986z" enable-background="new" filter="url(#d)" opacity=".15"></path><path fill="#ffffff" d="m41.5 30.04a10.5 10.5 0 0 0-10.5 10.5h-3l4.5 6 4.5-6h-3a7.5 7.5 0 0 1 7.5-7.5 7.5 7.5 0 0 1 7.5 7.5 7.5 7.5 0 0 1-7.5 7.5v3a10.5 10.5 0 0 0 10.5-10.5 10.5 10.5 0 0 0-10.5-10.5zm-1.5 5.25v6.4014l4.834 3.2226 0.83202-1.248-4.166-2.7774v-5.5986z" enable-background="new" class="colorfff svgShape"></path></svg></g></svg>